<svg width="2362" height="485" viewBox="0 0 2362 485" fill="none" xmlns="http://www.w3.org/2000/svg">
<path d="M487.264 191.268C487.264 168.927 482.051 152.949 471.625 143.336C461.199 133.722 443.665 128.915 419.021 128.915H399.117V257.887H420.24C443.123 257.887 459.981 252.674 470.813 242.248C481.781 231.822 487.264 214.829 487.264 191.268ZM399.117 276.167V366.752L442.378 372.235V383H327.624V372.235L359.917 366.752V126.681L324.983 121.4V110.636H427.755C494.373 110.636 527.682 137.378 527.682 190.862C527.682 218.755 519.22 239.946 502.294 254.434C485.504 268.922 461.335 276.167 429.786 276.167H399.117ZM605.02 383V372.235L639.954 366.752V126.681L605.02 121.4V110.636H714.088V121.4L679.153 126.681V233.717H807.313V126.681L772.379 121.4V110.636H881.243V121.4L846.309 126.681V366.752L881.243 372.235V383H772.379V372.235L807.313 366.752V251.997H679.153V366.752L714.088 372.235V383H605.02ZM1031.09 366.752L1066.02 372.235V383H957.159V372.235L992.093 366.752V126.681L957.159 121.4V110.636H1066.02V121.4L1031.09 126.681V366.752ZM1257.3 121.4L1215.26 126.681V365.533H1268.88C1297.72 365.533 1318.91 364.179 1332.45 361.471L1345.04 304.804H1358.25L1354.59 383H1141.13V372.235L1176.06 366.752V126.681L1141.13 121.4V110.636H1257.3V121.4ZM1491.44 246.513C1491.44 290.249 1498.75 321.933 1513.37 341.566C1528 361.2 1550.88 371.017 1582.02 371.017C1613.03 371.017 1635.91 361.2 1650.67 341.566C1665.43 321.933 1672.81 290.249 1672.81 246.513C1672.81 203.049 1665.43 171.77 1650.67 152.678C1636.05 133.451 1613.17 123.837 1582.02 123.837C1550.74 123.837 1527.79 133.451 1513.17 152.678C1498.68 171.77 1491.44 203.049 1491.44 246.513ZM1448.99 246.513C1448.99 153.897 1493.33 107.589 1582.02 107.589C1625.89 107.589 1659.07 119.369 1681.54 142.929C1704.02 166.354 1715.26 200.882 1715.26 246.513C1715.26 292.821 1703.89 327.823 1681.14 351.519C1658.39 375.214 1625.35 387.062 1582.02 387.062C1538.83 387.062 1505.86 375.282 1483.11 351.722C1460.36 328.026 1448.99 292.957 1448.99 246.513ZM1809.25 309.679H1822.45L1829.56 346.441C1834.57 352.805 1843.17 358.424 1855.36 363.299C1867.68 368.173 1879.8 370.611 1891.71 370.611C1910.67 370.611 1925.43 365.804 1935.99 356.19C1946.69 346.441 1952.04 333.036 1952.04 315.975C1952.04 306.226 1949.94 298.17 1945.74 291.806C1941.68 285.442 1936.26 280.093 1929.49 275.76C1922.86 271.292 1915.27 267.568 1906.74 264.59C1898.21 261.475 1889.41 258.361 1880.34 255.247C1871.4 252.132 1862.67 248.68 1854.14 244.888C1845.61 241.097 1837.96 236.29 1831.19 230.468C1824.55 224.645 1819.14 217.469 1814.94 208.939C1810.88 200.273 1808.85 189.644 1808.85 177.051C1808.85 155.386 1816.97 138.393 1833.22 126.072C1849.47 113.75 1872.01 107.589 1900.85 107.589C1922.79 107.589 1946.62 110.5 1972.35 116.323V172.989H1959.14L1952.04 139.68C1938.22 129.66 1921.16 124.65 1900.85 124.65C1882.71 124.65 1868.49 128.373 1858.2 135.821C1848.05 143.132 1842.97 153.288 1842.97 166.286C1842.97 175.088 1845 182.4 1849.06 188.222C1853.26 194.044 1858.67 199.054 1865.31 203.252C1872.08 207.314 1879.73 210.834 1888.26 213.813C1896.93 216.792 1905.73 219.906 1914.66 223.156C1923.74 226.27 1932.54 229.858 1941.07 233.921C1949.73 237.847 1957.38 242.925 1964.02 249.153C1970.79 255.247 1976.2 262.762 1980.27 271.698C1984.46 280.499 1986.56 291.399 1986.56 304.398C1986.56 330.666 1978.51 351.045 1962.39 365.533C1946.28 379.886 1923.06 387.062 1892.73 387.062C1878.1 387.062 1863.41 385.776 1848.65 383.203C1833.9 380.63 1820.76 377.11 1809.25 372.642V309.679ZM2120.57 246.513C2120.57 290.249 2127.88 321.933 2142.5 341.566C2157.13 361.2 2180.01 371.017 2211.15 371.017C2242.16 371.017 2265.04 361.2 2279.8 341.566C2294.56 321.933 2301.94 290.249 2301.94 246.513C2301.94 203.049 2294.56 171.77 2279.8 152.678C2265.18 133.451 2242.29 123.837 2211.15 123.837C2179.87 123.837 2156.92 133.451 2142.3 152.678C2127.81 171.77 2120.57 203.049 2120.57 246.513ZM2078.12 246.513C2078.12 153.897 2122.46 107.589 2211.15 107.589C2255.02 107.589 2288.2 119.369 2310.67 142.929C2333.15 166.354 2344.39 200.882 2344.39 246.513C2344.39 292.821 2333.02 327.823 2310.27 351.519C2287.52 375.214 2254.48 387.062 2211.15 387.062C2167.96 387.062 2134.99 375.282 2112.24 351.722C2089.49 328.026 2078.12 292.957 2078.12 246.513Z" fill="#1A1A1A"/>
<path d="M0 110.997H254V147.283H226.786C214.69 147.283 208.643 141.235 208.643 129.14V124.604H72.5714L217.714 351.39H254V383.14H0V346.854H27.2143C39.3095 346.854 45.3571 352.902 45.3571 364.997V369.533H181.429L36.2857 142.747H0V110.997Z" fill="black"/>
</svg>
